# AST/ASF file generated using VICON BodyLanguage
# -----------------------------------------------
:version 1.10
:name VICON
:units
  mass 1.0
  length 0.45
  angle deg
:documentation
   .ast/.asf automatically generated from VICON data using
   VICON BodyBuilder and BodyLanguage model FoxedUp or BRILLIANT.MOD
:root
   order TX TY TZ RX RY RZ
   axis XYZ
   position 0 0 0  
   orientation 0 0 0 
:bonedata
  begin
     id 1 
     name lhipjoint
     direction 0.558404 -0.748506 0.357664 
     length 2.4234 
     axis 0 0 0  XYZ
  end
  begin
     id 2 
     name lfemur
     direction 0.34202 -0.939693 0  
     length 7.14567  
     axis 0 0 20  XYZ
    dof rx ry rz
    limits (-160.0 20.0)
           (-70.0 70.0)
           (-60.0 70.0)
  end
  begin
     id 3 
     name ltibia
     direction 0.34202 -0.939693 0   
     length 8.13956   
     axis 0 0 20   XYZ
    dof rx
    limits (-10.0 170.0)
  end
  begin
     id 4 
     name lfoot
     direction 0.0791314 -0.217412 0.972867   
     length 2.00134   
     axis -90 7.62852e-016 20   XYZ
    dof rx rz
    limits (-45.0 90.0)
           (-70.0 20.0)
  end
  begin
     id 5 
     name ltoes
     direction 1.53547e-011 -4.21922e-011 1   
     length 1.00735   
     axis -90 7.62852e-016 20   XYZ
    dof rx
    limits (-90.0 20.0)
  end
  begin
     id 6 
     name rhipjoint
     direction -0.496392 -0.78327 0.374276   
     length 2.31584  
     axis 0 0 0  XYZ 
  end
  begin
     id 7 
     name rfemur
     direction -0.34202 -0.939693 0   
     length 7.47417   
     axis 0 0 -20   XYZ
    dof rx ry rz
    limits (-160.0 20.0)
           (-70.0 70.0)
           (-70.0 60.0)
  end
  begin
     id 8 
     name rtibia
     direction -0.34202 -0.939693 0   
     length 7.69071   
     axis 0 0 -20   XYZ
    dof rx
    limits (-10.0 170.0)
 end
 begin
     id 9 
     name rfoot
     direction -0.103069 -0.28318 0.953512   
     length 2.16135  
     axis -90 -7.62852e-016 -20   XYZ
    dof rx rz
    limits (-45.0 90.0)
           (-20.0 70.0)
  end
  begin
     id 10 
     name rtoes
     direction -1.53581e-011 -4.21904e-011 1   
     length 1.07867   
     axis -90 -7.62852e-016 -20   XYZ
    dof rx
    limits (-90.0 20.0)
  end
  begin
     id 11 
     name lowerback
     direction -0.0258961 0.994776 -0.0987407   
     length 2.19412   
     axis 0 0 0   XYZ
    dof rx ry rz
    limits (-20.0 45.0)
           (-30.0 30.0)
           (-30.0 30.0)
  end
  begin
     id 12 
     name upperback
     direction 0.0402454 0.999185 0.00320666   
     length 2.18445   
     axis 0 0 0   XYZ
    dof rx ry rz
    limits (-20.0 45.0)
           (-30.0 30.0)
           (-30.0 30.0)
  end
  begin
     id 13 
     name thorax
     direction 0.0519376 0.997415 0.0496558   
     length 2.21487   
     axis 0 0 0   XYZ
    dof rx ry rz
    limits (-20.0 45.0)
           (-30.0 30.0)
           (-30.0 30.0)
  end
  begin
     id 14 
     name lowerneck
     direction -0.0921276 0.983211 0.157506   
     length 1.61201   
     axis 0 0 0   XYZ
    dof rx ry rz
    limits (-20.0 45.0)
           (-30.0 30.0)
           (-30.0 30.0)
  end
  begin
     id 15 
     name upperneck
     direction 0.0820814 0.98162 -0.172292   
     length 1.65275   
     axis 0 0 0   XYZ
    dof rx ry rz
    limits (-20.0 45.0)
           (-30.0 30.0)
           (-30.0 30.0)
  end
  begin
     id 16
     name head
     direction 0.0336554 0.996413 -0.0776455  
     length 1.66415  
     axis 0 0 0   XYZ
    dof rx ry rz
    limits (-20.0 45.0)
           (-30.0 30.0)
           (-30.0 30.0)
  end
  begin
     id 17 
     name lclavicle
     direction 0.94696 0.284418 -0.149576  
     length 3.41447  
     axis 0 0 0   XYZ
    dof ry rz
    limits (-20.0 10.0)
           (0.0 20.0)
  end
  begin
     id 18 
     name lhumerus
     direction 1 -0.000130264 -9.81312e-005   
     length 5.19964   
     axis 180 -30 -90   XYZ
    dof rx ry rz
    limits (-60.0 90.0)
           (-90.0 90.0)
           (-90.0 90.0)
  end
  begin
     id 19
     name lradius
     direction 1 -4.48961e-011 1.43854e-026   
     length 3.32189   
     axis 180 -30 -90   XYZ
    dof rx
    limits (-10.0 170.0)
  end
  begin
     id 20
     name lwrist
     direction 1 -4.48958e-011 3.1502e-026   
     length 1.66095   
     axis -1.97692e-014 90 90   XYZ
    dof ry
    limits (-180.0 0.0)
 end
  begin
     id 21 
     name lhand
     direction 1 -4.48927e-011 6.3004e-026   
     length 0.645616   
     axis -4.02019e-014 90 90   XYZ
    dof rx rz
    limits (-90.0 90.0)
           (-45.0 45.0)
  end
  begin
     id 22 
     name lfingers
     direction 1 -4.4904e-011 1.26008e-025   
     length 0.520512   
     axis -8.04039e-014 90 90   XYZ
    dof rx
    limits (0.0 90.0)
  end
  begin
     id 23
     name lthumb
     direction 0.707107 -6.34947e-011 0.707107   
     length 0.747354   
     axis -90 45 2.85299e-015   XYZ
    dof rx rz
    limits (-45.0 45.0)
           (-45.0 45.0)
  end
  begin
     id 24 
     name rclavicle
     direction -0.909391 0.383475 -0.161107   
     length 3.25176  
     axis 0 0 0   XYZ 
    dof ry rz
    limits (-10.0 20.0)
           (-20.0 0.0)
  end
  begin
     id 25 
     name rhumerus
     direction -1 -4.48965e-011 -1.81384e-027  
     length 5.6595   
     axis 180 30 90   XYZ
    dof rx ry rz
    limits (-90.0 60.0)
           (-90.0 90.0)
           (-90.0 90.0)
  end
  begin
     id 26 
     name rradius
     direction -1 -4.48996e-011 -8.09397e-027   
     length 3.37604   
     axis 180 30 90   XYZ
    dof rx
    limits (-10.0 170.0)
  end
  begin
     id 27 
     name rwrist
     direction -1 -4.48927e-011 -1.56669e-026   
     length 1.68802   
     axis 1.21142e-014 -90 -90   XYZ
    dof ry
    limits (-180.0 0.0)
  end
  begin
     id 28
     name rhand
     direction -1 -4.48912e-011 -3.13339e-026   
     length 0.824702   
     axis 1.99937e-014 -90 -90   XYZ
    dof rx rz
    limits (-90.0 90.0)
           (-45.0 45.0)
  end
  begin
     id 29
     name rfingers
     direction -1 -4.49011e-011 -6.26677e-026   
     length 0.664896   
     axis 3.99874e-014 -90 -90   XYZ
    dof rx
    limits (0.0 90.0)
  end
  begin
     id 30
     name rthumb
     direction -0.707107 -6.34931e-011 0.707107   
     length 0.954662   
     axis -90 -45 -2.85299e-015   XYZ
    dof rx rz
    limits (-45.0 45.0)
           (-45.0 45.0)
  end
:hierarchy
  begin
    root lhipjoint rhipjoint lowerback
    lhipjoint lfemur
    lfemur ltibia
    ltibia lfoot
    lfoot ltoes
    rhipjoint rfemur
    rfemur rtibia
    rtibia rfoot
    rfoot rtoes
    lowerback upperback
    upperback thorax
    thorax lowerneck lclavicle rclavicle
    lowerneck upperneck
    upperneck head
    lclavicle lhumerus
    lhumerus lradius
    lradius lwrist
    lwrist lhand lthumb
    lhand lfingers
    rclavicle rhumerus
    rhumerus rradius
    rradius rwrist
    rwrist rhand rthumb
    rhand rfingers
  end

#!OML:ASF F:\VICON\USERDATA\INSTALL\rory3\rory3.ASF
:FULLY-SPECIFIED
:DEGREES
141
root 11.1313 17.5592 -35.2699 13.1009 -21.7943 -4.10522
lowerback 9.05177 0.990359 0.550959
upperback -1.20102 1.61531 3.86494
thorax -6.45029 0.844813 3.51925
lowerneck -16.2614 -5.67298 -12.4221
upperneck 18.4808 -7.06013 10.8223
head 9.34068 -3.07925 4.88152
rclavicle 3.97569e-016 1.43125e-014
rhumerus -32.4295 -12.7167 -74.7198
rradius 31.2035
rwrist -13.8544
rhand -13.8026 17.0355
rfingers 7.12502
rthumb 12.3195 -12.5815
lclavicle 3.97569e-016 1.43125e-014
lhumerus -28.9803 19.1938 83.5384
lradius 24.3635
lwrist -9.98708
lhand -5.94999 30.583
lfingers 7.12502
lthumb 19.8804 59.5862
rfemur -5.12178 4.48182 25.708
rtibia 29.5346
rfoot -28.555 -9.37852
rtoes 16.686
lfemur -44.04 -12.1199 -3.37519
ltibia 45.0065
lfoot -14.1156 -4.56816
ltoes 4.68259
142
root 11.1359 17.5459 -35.1646 13.3179 -22.119 -4.17461
lowerback 9.07159 1.07301 0.593331
upperback -1.13028 1.72824 3.87226
thorax -6.3923 0.897905 3.48586
lowerneck -16.3597 -5.70114 -12.3528
upperneck 18.5173 -7.08649 10.7271
head 9.36842 -3.09313 4.83141
rclavicle 1.88845e-014 -1.59028e-015
rhumerus -32.2616 -12.6174 -74.6235
rradius 31.3112
rwrist -14.0456
rhand -13.6684 17.1447
rfingers 7.12502
rthumb 12.4488 -12.4646
lclavicle 1.88845e-014 -1.59028e-015
lhumerus -28.8303 19.4947 83.4781
lradius 24.3497
lwrist -10.1921
lhand -5.278 31.1048
lfingers 7.12502
lthumb 20.5263 60.0396
rfemur -4.75999 4.6909 25.5432
rtibia 29.0801
rfoot -28.3132 -9.32007
rtoes 16.2163
lfemur -43.8685 -12.7704 -3.13878
ltibia 44.491
lfoot -13.0912 -4.32955
ltoes 14.9858
143
root 11.13 17.6108 -35.0512 13.631 -22.3825 -4.14784
lowerback 8.84441 1.17318 0.643932
upperback -0.916377 1.84391 3.73229
thorax -6.03634 0.94735 3.29378
lowerneck -16.6298 -5.82 -12.2334
upperneck 18.4868 -7.28015 10.8619
head 9.43383 -3.15241 4.82771
rclavicle 2.50469e-014 3.57812e-014
rhumerus -31.7652 -13.0509 -74.7058
rradius 31.3733
rwrist -14.1482
rhand -13.4091 17.4378
rfingers 7.12502
rthumb 12.6988 -12.1561
lclavicle 2.50469e-014 3.57812e-014
lhumerus -28.2765 19.5746 83.4471
lradius 24.3631
lwrist -10.172
lhand -5.14872 31.0869
lfingers 7.12502
lthumb 20.6505 60.0083
rfemur -4.35542 4.75258 25.3165
rtibia 28.1436
rfoot -27.5258 -9.62472
rtoes 13.4697
lfemur -45.0311 -14.4587 -1.77262
ltibia 43.948
lfoot -10.5186 -5.35698
ltoes 26.2075
144
root 11.132 17.6327 -34.9288 13.6927 -22.8563 -4.05213
lowerback 8.75635 1.18611 0.525561
upperback -0.847455 1.83998 3.6744
thorax -5.91492 0.947402 3.30109
lowerneck -16.2914 -5.77007 -12.3852
upperneck 18.8943 -7.26232 10.9303
head 9.51906 -3.15961 4.89373
rclavicle 4.37326e-015 -3.10104e-014
rhumerus -31.604 -13.0996 -74.6777
rradius 31.3529
rwrist -13.9673
rhand -13.4628 17.537
rfingers 7.12502
rthumb 12.647 -12.0601
lclavicle 4.37326e-015 -3.10104e-014
lhumerus -28.3556 19.9341 83.2024
lradius 24.2829
lwrist -10.1203
lhand -5.22971 30.9588
lfingers 7.12502
lthumb 20.5727 59.8887
rfemur -3.85355 5.06564 24.9397
rtibia 27.6093
rfoot -26.9832 -9.61153
rtoes 12.2189
lfemur -45.3416 -14.909 -1.55315
ltibia 43.8827
lfoot -9.56276 -5.31222
ltoes 29.0954
145
root 11.1354 17.6426 -34.8027 13.7921 -23.4373 -4.10687
lowerback 8.84976 1.31881 0.446865
upperback -0.701569 2.00554 3.68414
thorax -5.82651 1.02991 3.33147
lowerneck -16.8048 -5.6636 -12.1168
upperneck 18.5206 -7.07987 10.8862
head 9.44776 -3.04335 4.84521
rclavicle 3.73715e-014 -4.29375e-014
rhumerus -31.328 -13.2057 -74.5348
rradius 31.4669
rwrist -13.8459
rhand -13.6655 17.3702
rfingers 7.12502
rthumb 12.4516 -12.2389
lclavicle 3.73715e-014 -4.29375e-014
lhumerus -28.1568 20.2535 83.1718
lradius 24.1405
lwrist -10.371
lhand -5.42326 30.9597
lfingers 7.12502
lthumb 20.3867 59.9096
rfemur -3.36294 5.56977 24.6802
rtibia 27.237
rfoot -26.6857 -9.39493
rtoes 12.7783
lfemur -45.3878 -14.5693 -1.83287
ltibia 44.1919
lfoot -9.58912 -5.18871
ltoes 33.9234
